<!-- Generator: Adobe Illustrator 19.2.1, SVG Export Plug-In  -->
<svg version="1.1"
	 xmlns="http://www.w3.org/2000/svg" xmlns:xlink="http://www.w3.org/1999/xlink" xmlns:a="http://ns.adobe.com/AdobeSVGViewerExtensions/3.0/"
	 x="0px" y="0px" width="39.7px" height="38px" viewBox="0 0 39.7 38" style="overflow:scroll;enable-background:new 0 0 39.7 38;"
	 xml:space="preserve">
<style type="text/css">
	.st0{fill:none;}
</style>
<defs>
</defs>
<path class="st0" d="M19.8,0C8.9,0,0,8.7,0,19.5C0,28.1,5.7,35.4,13.6,38c1,0.2,1.4-0.4,1.4-0.9c0-0.5,0-1.7,0-3.3
	c-5.5,1.2-6.7-2.6-6.7-2.6C7.3,28.9,6,28.3,6,28.3c-1.8-1.2,0.1-1.2,0.1-1.2c2,0.1,3,2,3,2c1.8,3,4.6,2.1,5.8,1.6
	c0.2-1.3,0.7-2.1,1.3-2.6c-4.4-0.5-9-2.2-9-9.6c0-2.1,0.8-3.9,2-5.2C9,12.7,8.3,10.8,9.4,8.1c0,0,1.7-0.5,5.5,2
	c1.6-0.4,3.3-0.6,5-0.7c1.7,0,3.4,0.2,5,0.7c3.8-2.5,5.4-2,5.4-2c1.1,2.7,0.4,4.7,0.2,5.2c1.3,1.4,2,3.1,2,5.2c0,7.5-4.6,9.1-9,9.6
	c0.7,0.6,1.3,1.8,1.3,3.6c0,2.6,0,4.7,0,5.3c0,0.5,0.3,1.1,1.4,0.9c7.9-2.6,13.6-9.9,13.6-18.5C39.7,8.7,30.8,0,19.8,0z"/>
</svg>
