<!-- Generator: Adobe Illustrator 19.2.1, SVG Export Plug-In  -->
<svg version="1.1"
	 xmlns="http://www.w3.org/2000/svg" xmlns:xlink="http://www.w3.org/1999/xlink" xmlns:a="http://ns.adobe.com/AdobeSVGViewerExtensions/3.0/"
	 x="0px" y="0px" width="36.9px" height="36.9px" viewBox="0 0 36.9 36.9"
	 style="overflow:scroll;enable-background:new 0 0 36.9 36.9;" xml:space="preserve">
<style type="text/css">
	.st0{fill:none;}
</style>
<defs>
</defs>
<path class="st0" d="M18.5,0C8.3,0,0,8.3,0,18.5s8.3,18.5,18.5,18.5s18.5-8.3,18.5-18.5S28.7,0,18.5,0z M13.1,27.9H8.6V14.4h4.5
	V27.9z M10.8,12.5L10.8,12.5c-1.5,0-2.5-1-2.5-2.3c0-1.3,1-2.3,2.5-2.3s2.5,1,2.5,2.3C13.4,11.5,12.4,12.5,10.8,12.5z M29.3,27.9
	h-4.5v-7.2c0-1.8-0.7-3.1-2.3-3.1c-1.2,0-2,0.8-2.3,1.6c-0.1,0.3-0.1,0.7-0.1,1.1v7.6h-4.5c0,0,0.1-12.3,0-13.5h4.5v1.9
	c0.6-0.9,1.7-2.2,4.1-2.2c3,0,5.2,1.9,5.2,6.1V27.9z"/>
</svg>