<!-- Generator: Adobe Illustrator 19.2.1, SVG Export Plug-In  -->
<svg version="1.1"
	 xmlns="http://www.w3.org/2000/svg" xmlns:xlink="http://www.w3.org/1999/xlink" xmlns:a="http://ns.adobe.com/AdobeSVGViewerExtensions/3.0/"
	 x="0px" y="0px" width="36.9px" height="36.9px" viewBox="0 0 36.9 36.9"
	 style="overflow:scroll;enable-background:new 0 0 36.9 36.9;" xml:space="preserve">
<style type="text/css">
	.st0{fill:none;}
</style>
<defs>
</defs>
<path class="st0" d="M37.3,0H5C2.3,0,0,2.3,0,5.1v23.7c0,2.8,2.3,5.1,5,5.1h32.2c2.8,0,5-2.3,5-5.1V5.1C42.3,2.3,40,0,37.3,0z
									M37.3,29.3H5c-0.4,0-0.8-0.3-0.8-0.6V8.2l14.6,13c0.3,0.3,0.7,0.4,1.1,0.4l2.5,0c0.4,0,0.8-0.1,1.1-0.4L38,8.2v20.5
									C38,29.1,37.7,29.3,37.3,29.3z M21.1,17.1L7,4.5h28.4L21.1,17.1z"/>
</svg>