<?xml version="1.0" encoding="utf-8"?>
<!-- Generator: Adobe Illustrator 19.2.1, SVG Export Plug-In . SVG Version: 6.00 Build 0)  -->
<svg version="1.1" id="Capa_1" xmlns="http://www.w3.org/2000/svg" xmlns:xlink="http://www.w3.org/1999/xlink" x="0px" y="0px"
	 viewBox="0 0 512 512" style="enable-background:new 0 0 512 512;" xml:space="preserve">
<style type="text/css">
	.st0{fill:#FFFF6F;}
	.st1{fill:#88F8D8;}
	.st2{fill:#FFD600;}
	.st3{fill:#007EA8;}
	.st4{fill:#FF9900;}
	.st5{fill:#F95116;}
	.st6{fill:#0EB4BB;}
</style>
<g>
	<path class="st0" d="M384.1,202.5H67.9c-27.9,0-50.4,22.6-50.4,50.4v170.3c0,27.9,22.6,50.4,50.4,50.4h316.2
		c27.9,0,50.4-22.6,50.4-50.4V253C434.5,225.1,411.9,202.5,384.1,202.5L384.1,202.5z"/>
	<path class="st1" d="M354.1,255.6H148.9c-17.8,0-32.2,14.4-32.2,32.2v100.7c0,17.8,14.4,32.2,32.2,32.2h205.1
		c17.8,0,32.2-14.4,32.2-32.2V287.8C386.3,270,371.9,255.6,354.1,255.6L354.1,255.6z"/>
	<path class="st2" d="M444.1,202.5h-60.1c27.9,0,50.4,22.6,50.4,50.4v170.3c0,27.9-22.6,50.4-50.4,50.4h60.1
		c27.9,0,50.4-22.6,50.4-50.4V253C494.6,225.1,472,202.5,444.1,202.5L444.1,202.5z"/>
	<path class="st3" d="M354.1,248.1H148.9c-21.9,0-39.7,17.8-39.7,39.7v100.7c0,21.9,17.8,39.7,39.7,39.7h205.1
		c21.9,0,39.7-17.8,39.7-39.7V287.8C393.8,265.9,376,248.1,354.1,248.1L354.1,248.1z M148.9,263.1h205.1c13.6,0,24.7,11.1,24.7,24.7
		v22.4h-36v-22.4c0-4.1-3.4-7.5-7.5-7.5s-7.5,3.4-7.5,7.5v22.4h-40.8v-22.4c0-4.1-3.4-7.5-7.5-7.5s-7.5,3.4-7.5,7.5v22.4h-40.8
		v-22.4c0-4.1-3.4-7.5-7.5-7.5s-7.5,3.4-7.5,7.5v22.4h-40.8v-22.4c0-4.1-3.4-7.5-7.5-7.5c-4.1,0-7.5,3.4-7.5,7.5v22.4h-36v-22.4
		C124.2,274.2,135.3,263.1,148.9,263.1L148.9,263.1z M354.1,413.1H148.9c-13.6,0-24.7-11.1-24.7-24.7v-63.3h254.5v63.3
		C378.8,402.1,367.7,413.1,354.1,413.1L354.1,413.1z"/>
	<g>
		<circle class="st4" cx="67.1" cy="301.9" r="20"/>
		<circle class="st4" cx="67.1" cy="374.3" r="20"/>
	</g>
	<g>
		<g>
			<path class="st5" d="M67.1,329.4c-15.2,0-27.5-12.3-27.5-27.5c0-15.2,12.3-27.5,27.5-27.5s27.5,12.3,27.5,27.5
				C94.6,317.1,82.2,329.4,67.1,329.4z M67.1,289.5c-6.9,0-12.5,5.6-12.5,12.5c0,6.9,5.6,12.5,12.5,12.5c6.9,0,12.5-5.6,12.5-12.5
				C79.6,295.1,74,289.5,67.1,289.5z"/>
		</g>
		<g>
			<path class="st5" d="M67.1,401.8c-15.2,0-27.5-12.3-27.5-27.5c0-15.2,12.3-27.5,27.5-27.5s27.5,12.3,27.5,27.5
				C94.6,389.4,82.2,401.8,67.1,401.8z M67.1,361.8c-6.9,0-12.5,5.6-12.5,12.5c0,6.9,5.6,12.5,12.5,12.5c6.9,0,12.5-5.6,12.5-12.5
				C79.6,367.4,74,361.8,67.1,361.8z"/>
		</g>
	</g>
	<circle class="st3" cx="307" cy="355" r="11.8"/>
	<g>
		<path class="st3" d="M276.5,383.2h-49.9c-4.1,0-7.5-3.4-7.5-7.5c0-4.1,3.4-7.5,7.5-7.5h49.9c4.1,0,7.5,3.4,7.5,7.5
			C284,379.8,280.6,383.2,276.5,383.2z"/>
	</g>
	<circle class="st3" cx="196" cy="355" r="11.8"/>
	<path class="st6" d="M358.9,157.6h-54.4c-13.9,0-25.1,11.2-25.1,25.1v19.8h104.6v-19.8C384.1,168.9,372.8,157.6,358.9,157.6
		L358.9,157.6z"/>
	<g>
		<path class="st3" d="M384.1,207.2H279.4c-4.1,0-7.5-0.5-7.5-4.7v-19.8c0-18,14.6-32.6,32.6-32.6h54.4c18,0,32.6,14.6,32.6,32.6
			v19.8C391.6,206.7,388.2,207.2,384.1,207.2L384.1,207.2z M286.9,195h89.6v-12.3c0-9.7-7.9-17.6-17.6-17.6h-54.4
			c-9.7,0-17.6,7.9-17.6,17.6L286.9,195z"/>
	</g>
	<path class="st6" d="M118.7,202.5L226.9,102c6.8-6.8,6.8-17.7,0-24.5c-6.8-6.8-17.7-6.8-24.5,0l-134.6,125H118.7z"/>
	<g>
		<path class="st3" d="M116.3,207.7H65.5c-3.1,0-3.5,0.5-4.6-2.4c-1.1-2.9-0.4-6.1,1.9-8.2L197.3,72.2c9.7-9.6,25.3-9.5,35,0.1
			c9.7,9.7,9.7,25.4,0,35.1c-0.1,0.1-0.1,0.1-0.2,0.2L123.8,208C122.4,209.3,118.2,207.7,116.3,207.7L116.3,207.7z M87,195h28.8
			l106-98.4c3.7-3.8,3.7-10-0.1-13.8c-3.8-3.8-10-3.8-13.9,0c-0.1,0.1-0.1,0.1-0.2,0.2L87,195z"/>
	</g>
	<path class="st4" d="M444.1,195h-60.1H67.9C35.9,195,9.9,221,9.9,253v170.3c0,31.9,26,57.9,57.9,57.9h316.2h60.1
		c31.9,0,57.9-26,57.9-57.9V253C502.1,221,476.1,195,444.1,195z M24.9,423.2V253c0-23.7,19.3-42.9,42.9-42.9h316.2
		c23.7,0,42.9,19.3,42.9,42.9v170.3c0,23.7-19.3,42.9-42.9,42.9H67.9C44.2,466.2,24.9,446.9,24.9,423.2z M487.1,423.2
		c0,23.7-19.3,42.9-42.9,42.9h-21.2c11.9-10.7,19.1-26.3,19.1-42.9V253c0-16.4-7-32-19.1-42.9h21.2c23.7,0,42.9,19.3,42.9,42.9
		V423.2z"/>
</g>
</svg>
