<?xml version="1.0" encoding="utf-8"?>
<!-- Generator: Adobe Illustrator 19.2.1, SVG Export Plug-In . SVG Version: 6.00 Build 0)  -->
<svg version="1.1" id="Capa_1" xmlns="http://www.w3.org/2000/svg" xmlns:xlink="http://www.w3.org/1999/xlink" x="0px" y="0px"
	 viewBox="0 0 504.2 504.2" style="enable-background:new 0 0 504.2 504.2;" xml:space="preserve">
<style type="text/css">
	.st0{fill:#FFFF00;}
	.st1{fill:#E0E4E8;}
	.st2{fill:#183651;}
	.st3{fill:#FFFFFF;}
	.st4{fill:#F06151;}
	.st5{fill:#FBBD5E;}
	.st6{fill:#2EA0DA;}
</style>
<circle class="st0" cx="252.1" cy="252.1" r="252.1"/>
<path class="st1" d="M312.7,415.9l-137.1,58.3l31.5-46.5l-3.2-29.1c36.2-11,70.9-26.8,102.4-46.5l0,0L312.7,415.9z"/>
<path class="st2" d="M169.4,479.7c-2.4-2.4-2.4-6.3-0.8-9.5l29.9-44.1l-3.2-26c-0.8-3.9,1.6-7.1,5.5-8.7c35.4-10.2,69.3-26,100-45.7
	c3.2-1.6,7.1-1.6,9.5,0.8c1.6,1.6,2.4,3.2,2.4,4.7l7.1,63.8c0,3.2-1.6,7.1-4.7,7.9l-137.8,58.3C174.9,483.7,171.7,482.9,169.4,479.7
	z M211.9,404.9l2.4,22.8c0,1.6,0,3.9-1.6,5.5l-16.5,24.4L304.1,412l-4.7-45.7C271.8,382,242.6,395.4,211.9,404.9z"/>
<path class="st1" d="M104.8,300.1L75.6,297l-46.5,31.5l58.3-137.8l63.8,7.1l0,0C131.6,229.2,115.8,263.9,104.8,300.1z"/>
<path class="st2" d="M23.7,334.8c-2.4-2.4-3.9-6.3-2.4-9.5l58.3-137.8c1.6-3.2,4.7-5.5,7.9-4.7l63.8,7.1c1.6,0,3.9,0.8,4.7,2.4
	c2.4,2.4,3.2,6.3,0.8,9.5c-19.7,30.7-34.7,64.6-45.7,100c-0.8,3.9-4.7,6.3-8.7,5.5l-26-3.2l-43.3,30.7
	C30.8,337.1,26.8,337.1,23.7,334.8z M92.2,199.3L46.5,307.2l24.4-16.5c1.6-0.8,3.2-1.6,5.5-1.6l22.8,2.4
	c9.5-29.9,22.8-59.1,38.6-86.6L92.2,199.3z"/>
<path class="st3" d="M203.3,398.6C372.6,349,495.5,193,495.5,7.9l0,0l0,0c-185.1,0-341.1,123.7-390.7,292.2L203.3,398.6z"/>
<path class="st2" d="M203.3,406.5c-2.4,0-3.9-0.8-5.5-2.4l-98.5-98.5c-2.4-2.4-3.2-4.7-2.4-7.9C148.9,122.9,312.7,0,495.5,0
	c4.7,0,7.9,3.2,7.9,7.9c0,182.7-122.9,346.6-297.7,398.6C204.8,406.5,204,406.5,203.3,406.5z M113.5,298.6l92.2,91.4
	c163.8-50.4,278.8-202.4,282-374.2C316.7,19.7,163.9,133.9,113.5,298.6z"/>
<path class="st4" d="M470.3,149.7c16.5-44.1,25.2-92.2,25.2-141.8l0,0l0,0c-49.6,0-97.7,9.5-141.8,25.2L470.3,149.7z"/>
<path class="st2" d="M470.3,157.6c-2.4,0-3.9-0.8-5.5-2.4L348.2,39.4c-1.6-1.6-2.4-4.7-2.4-7.1c0.8-2.4,2.4-4.7,4.7-5.5
	C397.8,8.7,446.7,0,495.5,0c4.7,0,7.9,3.2,7.9,7.9c0,49.6-8.7,98.5-26,144.9c-0.8,2.4-3.2,4.7-5.5,4.7
	C471.1,157.6,471.1,157.6,470.3,157.6z M368.7,37l98.5,98.5c13.4-38.6,19.7-78.8,20.5-119.7C447.4,16.6,407.3,23.6,368.7,37z"/>
<path class="st3" d="M135.5,438.8C115.8,458.5,7.9,496.3,7.9,496.3s37.8-108.7,57.5-127.6c19.7-19.7,51.2-19.7,70.1,0
	C155.2,387.6,155.2,419.1,135.5,438.8z"/>
<path class="st2" d="M2.4,501.8c-2.4-2.4-3.2-5.5-1.6-7.9c3.9-11,39.4-110.3,59.1-130.8c11-11,25.2-16.5,41-16.5s29.9,6.3,41,16.5
	c22.8,22.8,22.8,59.1,0,81.1c-20.5,20.5-119.7,55.1-130.8,59.1C7.9,504.1,4.8,503.4,2.4,501.8z M100.9,361.6
	c-11,0-22.1,4.7-29.9,12.6c-12.6,12.6-37,73.3-49.6,109.5c35.4-13.4,96.1-37,109.5-49.6c16.5-16.5,16.5-42.5,0-59.1
	C122.1,365.5,111.9,361.6,100.9,361.6z"/>
<path class="st5" d="M48.1,455.3c13.4-33.9,27.6-64.6,33.9-70.9c4.7-4.7,11.8-7.9,18.1-7.9c7.1,0,13.4,2.4,18.1,7.9
	c10.2,10.2,10.2,26.8,0,37C112.7,428.5,82.7,441.9,48.1,455.3z"/>
<g>
	
		<rect x="245.7" y="176.4" transform="matrix(0.7071 -0.7071 0.7071 0.7071 -56.0442 233.2464)" class="st2" width="15.8" height="15.8"/>
	
		<rect x="278.7" y="209.5" transform="matrix(0.7071 -0.7071 0.7071 0.7071 -69.8052 266.2816)" class="st2" width="15.8" height="15.8"/>
	
		<rect x="311.7" y="242.6" transform="matrix(0.7071 -0.7071 0.7071 0.7071 -83.5574 299.3195)" class="st2" width="15.8" height="15.8"/>
</g>
<circle class="st6" cx="345" cy="159.1" r="48"/>
<circle class="st3" cx="371.8" cy="154.4" r="8.7"/>
<polygon class="st1" points="249.7,253.7 191.4,258.4 111.9,392.3 245,312.7 "/>
<path class="st2" d="M106.4,397.8c-2.4-2.4-3.2-6.3-1.6-9.5l79.6-133.9c1.6-2.4,3.9-3.9,6.3-3.9l58.3-4.7c2.4,0,4.7,0.8,6.3,2.4
	c1.6,1.6,2.4,3.9,2.4,6.3l-4.7,58.3c0,2.4-1.6,4.7-3.9,6.3L115,398.6C112.7,401,108.7,400.2,106.4,397.8z M196.2,266.3l-61.4,103.2
	L237.9,308l3.2-44.9L196.2,266.3z"/>
</svg>
