<?xml version="1.0" encoding="utf-8"?>
<!-- Generator: Adobe Illustrator 19.2.1, SVG Export Plug-In . SVG Version: 6.00 Build 0)  -->
<svg version="1.1" id="Livello_1" xmlns="http://www.w3.org/2000/svg" xmlns:xlink="http://www.w3.org/1999/xlink" x="0px" y="0px"
	 viewBox="0 0 36.9 36.9" style="enable-background:new 0 0 36.9 36.9;" xml:space="preserve">
<style type="text/css">
	.st0{fill:#FFFFFF;}
</style>
<g id="XMLID_85_">
	<path id="XMLID_86_" class="st0" d="M18.4,0C8.3,0,0,8.3,0,18.4c0,10.2,8.3,18.5,18.4,18.5c10.2,0,18.4-8.3,18.4-18.5
		C36.8,8.3,28.6,0,18.4,0z M9.1,25.2c2.1-0.7,4.3-1,6.5-1c3.7,0,7.4,0.9,10.6,2.7c0.2,0.1,0.4,0.4,0.4,0.9c0.1,0.4,0,0.9-0.1,1.1
		c-0.2,0.3-0.5,0.5-0.8,0.5c-0.2,0-0.3,0-0.5-0.1c-3-1.6-6.3-2.5-9.7-2.5c-2,0-4,0.3-5.9,0.9c-0.1,0-0.2,0-0.3,0
		c-0.4,0-0.8-0.3-0.9-0.7C8.3,26.6,8.6,25.4,9.1,25.2z M8.3,18.4c2.4-0.6,4.8-1,7.3-1c4.4,0,8.9,1.1,12.8,3.1
		c0.3,0.1,0.5,0.4,0.6,0.7c0.1,0.3,0.1,0.6-0.1,0.9c-0.3,0.7-0.8,1.1-1,1.1c-0.2,0-0.4,0-0.5-0.1c-3.6-1.9-7.6-2.9-11.7-2.9
		c-2.3,0-4.6,0.3-6.7,0.9c-0.1,0-0.2,0-0.3,0c-0.5,0-1-0.3-1.1-0.8C7.3,19.7,7.7,18.6,8.3,18.4z M8.1,14c-0.1,0-0.2,0-0.3,0
		c-0.6,0-1.2-0.4-1.3-1c-0.2-0.8,0.3-1.7,1-1.8c2.7-0.7,5.4-1,8.2-1c5.3,0,10.4,1.2,15.1,3.5c0.3,0.2,0.6,0.4,0.7,0.8
		c0.1,0.3,0.1,0.7-0.1,1c-0.2,0.4-0.7,0.9-1.2,0.9c-0.2,0-0.4,0-0.6-0.1c-4.3-2.2-9-3.3-13.9-3.3C13.1,13.1,10.5,13.4,8.1,14z"/>
</g>
</svg>
